<?xml version="1.0" encoding="utf-8"?>
<!-- Generator: Adobe Illustrator 16.0.0, SVG Export Plug-In . SVG Version: 6.00 Build 0)  -->
<!DOCTYPE svg PUBLIC "-//W3C//DTD SVG 1.1 Tiny//EN" "http://www.w3.org/Graphics/SVG/1.1/DTD/svg11-tiny.dtd">
<svg version="1.1" baseProfile="tiny" id="Layer_1" xmlns="http://www.w3.org/2000/svg" xmlns:xlink="http://www.w3.org/1999/xlink"
	 x="0px" y="0px" width="24px" height="24px" viewBox="0 0 24 24" xml:space="preserve">
<g>
	<path d="M17.962,7.959V6.582c0-3.288-2.675-5.963-5.962-5.963c-3.288,0-5.963,2.675-5.963,5.963v1.377
		c-1.083,0.232-1.884,1.193-1.884,2.334v10.698c0,1.318,1.073,2.39,2.391,2.39h10.913c1.318,0,2.39-1.072,2.39-2.39V10.293
		C19.847,9.152,19.045,8.191,17.962,7.959z M6.836,6.582c0-2.847,2.316-5.164,5.164-5.164c2.847,0,5.163,2.316,5.163,5.164v1.321
		H6.836V6.582z M19.047,20.991c0,0.877-0.713,1.59-1.59,1.59H6.544c-0.877,0-1.591-0.713-1.591-1.59V10.293
		c0-0.845,0.661-1.541,1.505-1.585L6.54,8.703h10.919l0.083,0.004c0.844,0.044,1.506,0.741,1.506,1.585V20.991z"/>
	<path d="M12,11.734c-1.292,0-2.342,1.051-2.342,2.343c0,0.673,0.295,1.316,0.799,1.758v2.171c0,0.852,0.692,1.544,1.543,1.544
		c0.852,0,1.544-0.693,1.544-1.544v-2.171c0.503-0.442,0.798-1.084,0.798-1.758C14.342,12.785,13.292,11.734,12,11.734z
		 M12.909,15.32l-0.164,0.12v2.565c0,0.411-0.334,0.745-0.745,0.745c-0.41,0-0.744-0.334-0.744-0.745V15.44l-0.164-0.12
		c-0.403-0.294-0.635-0.748-0.635-1.243c0-0.851,0.692-1.543,1.542-1.543s1.542,0.692,1.542,1.543
		C13.542,14.573,13.312,15.026,12.909,15.32z"/>
</g>
</svg>
