<?xml version='1.0' encoding='iso-8859-1'?>
<svg version="1.1" xmlns="http://www.w3.org/2000/svg" viewBox="0 0 332.999 332.999" xmlns:xlink="http://www.w3.org/1999/xlink" enable-background="new 0 0 332.999 332.999">
  <g>
    <path d="m290.372,69.215c-13.28-9.142-27.486-14.992-41.081-17.595-2.592-1.003-5.365-1.574-8.262-1.574h-7.762c-0.007,0-0.014,0-0.021,0h-66.746-66.747c-0.007,0-0.013,0-0.021,0h-7.762c-2.897,0-5.669,0.571-8.262,1.574-13.594,2.603-27.801,8.453-41.081,17.595-37.262,25.64-53.092,67.321-35.357,93.095 2.374,3.448 8.492,5.438 8.492,5.438l74.491-53.8c0.57,0.043 1.138,0.098 1.718,0.098h74.529 74.529c0.58,0 1.148-0.054 1.718-0.098l74.491,53.8c0,0 6.118-1.989 8.492-5.438 17.735-25.774 1.906-67.455-35.358-93.095z"/>
    <path d="m230.721,130.726h-128.443l-85.628,59.97v78.419c0,0 8.519,13.839 19.028,13.839h261.644c10.509,0 19.028-6.48 19.028-13.839v-78.419l-85.629-59.97zm-64.221,125.614c-27.338,0-49.5-22.162-49.5-49.5s22.162-49.5 49.5-49.5 49.5,22.162 49.5,49.5-22.162,49.5-49.5,49.5z"/>
    <circle cx="166.5" cy="179.647" r="13.5"/>
    <circle cx="193.5" cy="206.647" r="13.5"/>
    <circle cx="139.5" cy="206.647" r="13.5"/>
    <circle cx="166.5" cy="233.647" r="13.5"/>
  </g>
</svg>
